<?xml version="1.0" encoding="utf-8"?>
<!-- Generator: Adobe Illustrator 18.0.0, SVG Export Plug-In . SVG Version: 6.00 Build 0)  -->
<!DOCTYPE svg PUBLIC "-//W3C//DTD SVG 1.1//EN" "http://www.w3.org/Graphics/SVG/1.1/DTD/svg11.dtd">
<svg version="1.1" id="Layer_1" xmlns="http://www.w3.org/2000/svg" xmlns:xlink="http://www.w3.org/1999/xlink" x="0px" y="0px"
	 viewBox="0 0 16 16" style="enable-background:new 0 0 16 16;" xml:space="preserve">
<style type="text/css">
	.st0{fill:#C1C1C1;}
</style>
<g>
	<path class="st0" d="M13.1801,7.2133L4.3934,16H0v-4.3934l8.7867-8.7867L13.1801,7.2133z M4.7943,13.687l-2.4819-2.4819
		l-0.9606,0.9612v1.1301h1.3518v1.3518h1.1301L4.7943,13.687z M9.1247,4.6151c-0.063,0-0.1271,0.0212-0.1793,0.0739l-5.7245,5.7245
		c-0.0522,0.0527-0.0739,0.1157-0.0739,0.1793c0,0.1375,0.0956,0.2325,0.2325,0.2325c0.063,0,0.1271-0.0212,0.1793-0.0739
		l5.7245-5.7245c0.0522-0.0527,0.0739-0.1157,0.0739-0.1793C9.3572,4.7101,9.2616,4.6151,9.1247,4.6151z M15.6088,4.784
		L13.856,6.5374L9.4626,2.144l1.7528-1.7425C11.4588,0.1478,11.8077,0,12.1663,0c0.3586,0,0.7074,0.1478,0.9606,0.4015
		l2.4819,2.4711C15.8522,3.1263,16,3.4746,16,3.8337S15.8522,4.5412,15.6088,4.784z"/>
</g>
</svg>
