<?xml version="1.0" encoding="utf-8"?>
<!-- Generator: Adobe Illustrator 18.0.0, SVG Export Plug-In . SVG Version: 6.00 Build 0)  -->
<!DOCTYPE svg PUBLIC "-//W3C//DTD SVG 1.1//EN" "http://www.w3.org/Graphics/SVG/1.1/DTD/svg11.dtd">
<svg version="1.1" id="Layer_1" xmlns="http://www.w3.org/2000/svg" xmlns:xlink="http://www.w3.org/1999/xlink" x="0px" y="0px"
	 viewBox="0 0 24 24" style="enable-background:new 0 0 24 24;" xml:space="preserve">
<style type="text/css">
	.st0{opacity:0.3;}
	.st1{fill:#515151;}
</style>
<g class="st0">
	<path class="st1" d="M23.434,20.687l-2.7467,2.7467c-0.3635,0.3646-0.8693,0.566-1.3739,0.566s-1.0105-0.2014-1.3739-0.566
		l-5.9397-5.9391l-5.9391,5.9391c-0.364,0.3646-0.8687,0.566-1.3739,0.566s-1.0099-0.2014-1.3739-0.566L0.5654,20.687
		C0.202,20.3235,0,19.8177,0,19.313c0-0.5047,0.202-1.0105,0.5654-1.3739L6.5051,12L0.5654,6.0609C0.202,5.6969,0,5.1922,0,4.687
		S0.202,3.6771,0.5654,3.313l2.7473-2.7473c0.364-0.3635,0.8687-0.5654,1.3739-0.5654s1.0099,0.202,1.3739,0.5654l5.9391,5.9397
		l5.9397-5.9397c0.3635-0.3635,0.8693-0.5654,1.3739-0.5654s1.0105,0.202,1.3739,0.5654L23.434,3.313
		C23.7986,3.6771,24,4.1817,24,4.687s-0.2014,1.0099-0.566,1.3739L17.4949,12l5.9391,5.9391C23.7986,18.3025,24,18.8084,24,19.313
		C24,19.8177,23.7986,20.3235,23.434,20.687z"/>
</g>
</svg>
