<?xml version="1.0" encoding="utf-8"?>
<!-- Generator: Adobe Illustrator 18.0.0, SVG Export Plug-In . SVG Version: 6.00 Build 0)  -->
<!DOCTYPE svg PUBLIC "-//W3C//DTD SVG 1.1//EN" "http://www.w3.org/Graphics/SVG/1.1/DTD/svg11.dtd">
<svg version="1.1" id="Layer_1" xmlns="http://www.w3.org/2000/svg" xmlns:xlink="http://www.w3.org/1999/xlink" x="0px" y="0px"
	 viewBox="0 0 24 24" style="enable-background:new 0 0 24 24;" xml:space="preserve">
<style type="text/css">
	.st0{opacity:0.3;}
	.st1{fill:#515151;}
</style>
<g id="settings_2_" class="st0">
	<g>
		<path class="st1" d="M20.8485,13.2658c0-0.3608,0.1205-0.7231,0.1205-1.2052c0-0.4828,0-0.8443-0.1205-1.2067l2.5323-2.0495
			c0.241-0.2418,0.241-0.4828,0.1213-0.7238l-2.4126-4.2211c-0.1205-0.1213-0.3616-0.2411-0.7239-0.1213L17.3504,4.945
			c-0.6025-0.4821-1.3264-0.8444-2.0495-1.2067l-0.4828-3.1349C14.9386,0.241,14.5771,0,14.3353,0H9.5117
			c-0.241,0-0.6034,0.241-0.6034,0.4821l-0.482,3.2562C7.7032,3.9801,7.0999,4.4629,6.376,4.945L3.4813,3.7383
			c-0.3615-0.1198-0.6025,0-0.8443,0.2418L0.2251,8.2011c-0.1205,0.1205,0,0.482,0.241,0.7231l2.5332,1.9297
			c0,0.3624-0.1205,0.7239-0.1205,1.2067c0,0.4821,0,0.8444,0.1205,1.2052l-2.5332,2.0511c-0.241,0.241-0.241,0.482-0.1197,0.723
			l2.4118,4.2219c0.1206,0.1197,0.3616,0.241,0.7231,0.1197l3.0152-1.2051c0.6034,0.4821,1.3264,0.8436,2.0511,1.2051l0.482,3.1365
			C9.0296,23.7589,9.2707,24,9.633,24h4.8236c0.2411,0,0.6034-0.2411,0.6034-0.4821l0.4821-3.1365
			c0.723-0.3615,1.4477-0.723,2.0502-1.2051l3.0144,1.2051c0.2419,0.1213,0.6034,0,0.7247-0.241l2.4118-4.2211
			c0.1205-0.241,0.1205-0.6025-0.1213-0.7238L20.8485,13.2658z M11.9234,16.281c-2.2905,0-4.2202-1.929-4.2202-4.2203
			c0-2.2921,1.9298-4.2218,4.2202-4.2218c2.2921,0,4.2219,1.9297,4.2219,4.2218C16.1453,14.352,14.2155,16.281,11.9234,16.281z"/>
	</g>
</g>
</svg>
