<?xml version="1.0" encoding="utf-8"?>
<!-- Generator: Adobe Illustrator 18.0.0, SVG Export Plug-In . SVG Version: 6.00 Build 0)  -->
<!DOCTYPE svg PUBLIC "-//W3C//DTD SVG 1.1//EN" "http://www.w3.org/Graphics/SVG/1.1/DTD/svg11.dtd">
<svg version="1.1" id="Layer_1" xmlns="http://www.w3.org/2000/svg" xmlns:xlink="http://www.w3.org/1999/xlink" x="0px" y="0px"
	 viewBox="0 0 128 128" style="enable-background:new 0 0 128 128;" xml:space="preserve">
<style type="text/css">
	.st0{opacity:0.8;fill:#F2C50A;}
	.st1{opacity:0.8;fill:#07C6F0;}
	.st2{opacity:0.8;fill:#00DC3F;}
	.st3{fill:#1A3C5B;}
	.st4{fill:#2C5617;}
	.st5{fill:#06569A;}
	.st6{fill:#0A5B8D;}
	.st7{fill:#096328;}
	.st8{fill:#016342;}
	.st9{fill:#01653F;}
</style>
<g>
	<path class="st0" d="M24.2027,55.9172c-8.2663,4.8079-17.2969,37.172-15.4492,39.718c2.9669,4.088,29.2089,11.2906,43.6246,10.6801
		c17.6507-0.7475,37.0835,3.8588,40.0953,1.8341c5.7373-3.8568,16.6089-31.7123,13.9399-35.7901
		c-2.3867-3.6464-13.5704-11.3447-32.6908-9.285C49.2016,65.7159,29.6943,52.7232,24.2027,55.9172z"/>
	<path class="st0" d="M56.3799,13.3733C45.9125,18.699,36.0889,46.4563,38.7895,51.7736c2.022,3.9813,20.8637,1.5872,35.5152,3.8167
		c8.9128,1.3562,18.7529,4.8541,22.5646,3.1229c9.1845-4.1716,17.2182-29.9035,14.2263-35.7418
		c-1.2999-2.5365-8.286-7.019-20.9509-7.0963C73.3565,15.7728,62.0291,10.4991,56.3799,13.3733z"/>
	<path class="st1" d="M38.2472,23.0102c-8.2663,4.8079-18.6871,35.5323-16.8393,38.0783c2.9669,4.088,21.2732,8.959,43.47,11.1175
		c17.5836,1.7099,37.5565,3.5944,40.5683,1.5697c5.7373-3.8568,15.3336-31.4174,12.6646-35.4952
		c-2.3867-3.6464-13.7461-3.2935-32.0168-6.0874C65.3313,29.0182,43.7388,19.8161,38.2472,23.0102z"/>
	<path class="st2" d="M18.3701,40.6472C8.7795,44.6926-3.1351,72.0777,0.7567,78.4368c1.1002,1.7977,40.5681,9.3197,73.8198,13.5322
		c20.526,2.6004,32.9405,2.2169,35.0286,1.2814c9.2058-4.1242,21.5956-35.5585,17.6369-38.2607
		c-3.8417-2.6224-20.6381,0.898-42.3024-2.9561C55.6203,46.8177,25.8384,37.497,18.3701,40.6472z"/>
</g>
<path class="st3" d="M106.7899,0c0,0-1.8339,2.8987-2.8053,7.9586c-2.6205,13.6462-16.5519,90.9247-16.5519,90.9247l-15.6173,5.0283
	l15.5183-89.0313c-6.3596,2.3524-11.3331,2.4532-17.8827,3.3287c-3.3757,0.4512-8.1535,2.6889-9.136,7.9824l-1.4161,7.8493h15.7024
	l-1.9448,10.4263H57.0947L42.96,123.164L27.4905,128l14.8039-83.5328H33.543l1.8006-10.4263h8.7515l1.5455-8.7515
	c1.1166-6.437,4.0559-11.432,8.818-14.9962c4.7621-3.5605,10.0603-5.3389,15.8946-5.3389c3.3851,0,15.619,1.9838,33.582-3.771
	C104.6709,0.9477,106.7899,0,106.7899,0z"/>
<path class="st4" d="M73.9117,91.8845l-2.0964,12.0272l15.6173-5.0283c0,0,0.3657-2.0284,0.9895-5.485
	c-4.0844-0.3151-8.7117-0.7789-13.8457-1.4293C74.3552,91.941,74.1335,91.9128,73.9117,91.8845 M34.9388,85.9723l-3.1978,18.0442
	c4.8223,1.0242,9.7953,1.8074,14.2722,2.1483l3.2019-17.8272C44.3046,87.5623,39.4999,86.7645,34.9388,85.9723"/>
<path class="st4" d="M87.1728,15.8034l-2.8084,16.112c0.5775,0.0971,1.1529,0.1896,1.7295,0.2778
	c4.8743,0.7454,9.2579,1.2669,13.1093,1.7c1.1202-6.1462,2.1498-11.7743,2.9926-16.3478
	c-3.1839-0.9649-7.2015-1.6406-12.0513-1.6702C89.1343,15.869,88.1435,15.8441,87.1728,15.8034 M60.7775,12.517
	c-1.7242,0-3.1901,0.242-4.3976,0.8564c-3.1497,1.6025-6.2416,5.2369-8.951,9.679c3.6393,0.7116,8.0364,1.8896,12.8759,3.196
	l0.0102-0.0567c0.9825-5.2935,5.7603-7.5312,9.136-7.9825c5.7089-0.7631,10.2207-0.9378,15.4964-2.5279
	C74.3379,14.9639,66.2573,12.517,60.7775,12.517"/>
<path class="st5" d="M42.057,34.0409h-6.7134l-1.2582,7.2859c1.6722,0.2994,3.4373,0.6416,5.2831,1.0177
	C40.0095,39.7783,40.9272,36.9292,42.057,34.0409 M46.1765,22.8211c-0.2103,0.7978-0.389,1.6205-0.536,2.4683l-0.2421,1.371
	c0.6472-1.243,1.326-2.453,2.0305-3.6081C47.0006,22.9685,46.5834,22.8914,46.1765,22.8211"/>
<path class="st6" d="M84.3644,31.9154l-3.38,19.3914c1.3187,0.2497,2.6362,0.4923,3.9551,0.7269
	c3.7281,0.6633,7.3126,1.1082,10.7112,1.4035c1.2098-6.6697,2.4266-13.3667,3.5525-19.544c-3.8514-0.4331-8.235-0.9546-13.1093-1.7
	C85.5174,32.105,84.942,32.0125,84.3644,31.9154 M47.4289,23.0523c-0.7046,1.1551-1.3833,2.3651-2.0305,3.6081l-1.3033,7.3805
	h-2.038c-1.1298,2.8883-2.0475,5.7374-2.6886,8.3036c5.2474,1.0693,11.1478,2.4128,17.4202,3.8268l0.3061-1.704h15.5619
	l1.9448-10.4264H58.899l1.4058-7.7926C55.4653,24.9419,51.0682,23.7639,47.4289,23.0523"/>
<path class="st7" d="M77.1401,73.3626l-3.2284,18.5219c0.2218,0.0283,0.4435,0.0565,0.6647,0.0845
	c5.134,0.6504,9.7613,1.1142,13.8457,1.4293c0.7952-4.4061,2.0097-11.1321,3.4219-18.9409
	C87.4644,74.2317,82.3927,73.8309,77.1401,73.3626 M38.1381,67.9196l-3.1994,18.0527c4.5611,0.7922,9.3659,1.59,14.2763,2.3653
	l3.176-17.6825C47.166,69.8585,42.3491,68.9266,38.1381,67.9196"/>
<path class="st8" d="M80.0488,56.675l-1.057,6.064c0.3382-0.0061,0.6726-0.0091,1.0049-0.0091
	c5.3065,0.0002,9.8568,0.7704,13.6237,1.9114c0.3262-1.8013,0.6568-3.6265,0.9906-5.4687
	c-0.1761,0.0079-0.3574,0.0117-0.5431,0.0117C90.5729,59.1843,85.4085,57.8276,80.0488,56.675 M40.7525,53.168l-0.9768,5.5116
	c0.8105,0.2442,1.6452,0.4923,2.5025,0.7403c3.517,1.0174,7.4176,2.0348,11.6297,2.7904l1.4-7.7947
	C49.0261,54.2916,43.6044,54.1744,40.7525,53.168 M34.0853,41.3268l-0.5423,3.1405h5.3456c0.1365-0.6813,0.2968-1.39,0.4798-2.1228
	C37.5226,41.9683,35.7575,41.6262,34.0853,41.3268"/>
<path class="st9" d="M79.9967,62.7299c-0.3323,0-0.6667,0.003-1.0049,0.0091l-1.8517,10.6235
	c5.2525,0.4683,10.3243,0.8691,14.704,1.0949c0.5652-3.1254,1.1621-6.4241,1.7763-9.8163
	C89.8535,63.5004,85.3033,62.7301,79.9967,62.7299 M39.7757,58.6796l-1.6375,9.24c4.211,1.007,9.0279,1.9389,14.2529,2.7355
	l1.5168-8.4449c-4.2121-0.7556-8.1127-1.773-11.6297-2.7904C41.4209,59.1719,40.5862,58.9238,39.7757,58.6796"/>
<path class="st9" d="M80.9845,51.3068l-0.9357,5.3683c5.3597,1.1525,10.5241,2.5093,14.0191,2.5093
	c0.1858,0,0.367-0.0038,0.5431-0.0117c0.344-1.8986,0.6922-3.819,1.0398-5.7353c-3.3986-0.2954-6.9831-0.7403-10.7112-1.4035
	C83.6207,51.799,82.3031,51.5565,80.9845,51.3068 M39.3684,42.3445c-0.1831,0.7328-0.3433,1.4415-0.4798,2.1228h3.4059
	l-1.542,8.7008c2.8519,1.0064,8.2737,1.1236,14.5554,1.2475l1.4808-8.2443C50.5162,44.7573,44.6158,43.4138,39.3684,42.3445"/>
</svg>
