<?xml version="1.0" encoding="utf-8"?>
<!-- Generator: Adobe Illustrator 18.0.0, SVG Export Plug-In . SVG Version: 6.00 Build 0)  -->
<!DOCTYPE svg PUBLIC "-//W3C//DTD SVG 1.1//EN" "http://www.w3.org/Graphics/SVG/1.1/DTD/svg11.dtd">
<svg version="1.1" id="Layer_1" xmlns="http://www.w3.org/2000/svg" xmlns:xlink="http://www.w3.org/1999/xlink" x="0px" y="0px"
	 viewBox="0 0 24 24" style="enable-background:new 0 0 24 24;" xml:space="preserve">
<style type="text/css">
	.st0{fill:#C1C1C1;}
</style>
<path class="st0" d="M9.4088,3.4021c1.6044,0,3.1129,0.6248,4.2474,1.7593c1.1345,1.1345,1.7594,2.643,1.7594,4.2474
	c0,1.6045-0.6249,3.1129-1.7594,4.2474c-1.1345,1.1345-2.643,1.7593-4.2474,1.7593c-1.6045,0-3.1129-0.6248-4.2474-1.7593
	c-1.1345-1.1345-1.7593-2.643-1.7593-4.2474c0-1.6044,0.6248-3.1129,1.7593-4.2474C6.2959,4.0269,7.8044,3.4021,9.4088,3.4021
	 M9.4088,0c-2.408,0-4.8159,0.9186-6.653,2.7558c-3.6744,3.6744-3.6744,9.6317,0,13.306c1.8372,1.8372,4.2451,2.7558,6.653,2.7558
	c2.4079,0,4.8158-0.9186,6.653-2.7558c3.6744-3.6744,3.6744-9.6317,0-13.306C14.2246,0.9186,11.8167,0,9.4088,0L9.4088,0z"/>
<path class="st0" d="M23.7058,21.7056l-2.0002,2.0002c-0.3922,0.3922-1.0281,0.3922-1.4204,0l-6.0519-6.0519
	c-0.3922-0.3922-0.3922-1.0281,0-1.4204l2.0002-2.0002c0.3922-0.3922,1.0281-0.3922,1.4204,0l6.0519,6.0519
	C24.0981,20.6775,24.0981,21.3134,23.7058,21.7056z"/>
</svg>
