<?xml version="1.0" encoding="utf-8"?>
<!-- Generator: Adobe Illustrator 19.0.0, SVG Export Plug-In . SVG Version: 6.00 Build 0)  -->
<!DOCTYPE svg PUBLIC "-//W3C//DTD SVG 1.1//EN" "http://www.w3.org/Graphics/SVG/1.1/DTD/svg11.dtd">
<svg version="1.1" id="Layer_1" xmlns="http://www.w3.org/2000/svg" xmlns:xlink="http://www.w3.org/1999/xlink" x="0px" y="0px"
	 viewBox="-525 975 100 100" style="enable-background:new -525 975 100 100;" xml:space="preserve">
<style type="text/css">
	.st0{opacity:0.8;fill:#F2C50A;}
	.st1{opacity:0.8;fill:#07C6F0;}
	.st2{opacity:0.8;fill:#00DC3F;}
	.st3{fill:#1A3C5B;}
	.st4{fill:#2C5617;}
	.st5{fill:#06569A;}
	.st6{opacity:0.9608;fill:#2FC6C9;}
	.st7{fill:#0A5B8D;}
	.st8{opacity:0.9608;fill:#29D836;}
	.st9{fill:#096328;}
	.st10{opacity:0.9608;fill:#01D85D;}
	.st11{fill:#016342;}
	.st12{opacity:0.9922;fill:#09D85A;}
	.st13{fill:#01653F;}
</style>
<g>
	<g>
		<path class="st0" d="M-507.9,1019.3c-6,3.8-10.7,28.7-9.2,30.6c2.5,3.1,23.2,8.5,34.4,7.9c14-0.7,30,2.8,32.3,1.2
			c4.4-3.1,11.1-25.4,8.6-28.6c-2.2-2.8-11.9-8.7-27.1-6.6C-487.9,1026.3-503.9,1016.8-507.9,1019.3z"/>
		<path class="st0" d="M-486,986c-7.7,4.4-13.4,25.9-11,29.9c1.8,3,16.3,0.7,28.1,2.1c7.2,0.8,15.4,3.3,18.4,1.9
			c7.2-3.5,11.7-24,8.8-28.4c-1.3-1.9-7.3-5.2-17.5-4.8C-472.5,987.2-481.8,983.5-486,986z"/>
		<path class="st1" d="M-499.3,993.9c-6,3.9-11.9,27.5-10.3,29.4c2.5,3.1,17,6.4,34.5,7.7c14.1,1,30.5,2.1,32.8,0.5
			c4.4-3.2,10.1-25.2,7.6-28.4c-2.2-2.8-11.5-2.2-26.4-3.8C-477.9,997.6-495.3,991.3-499.3,993.9z"/>
		<path class="st2" d="M-513.3,1007.9c-7,3.3-14.2,24.3-10.9,29c0.9,1.3,31.6,6.6,58.2,9.4c16.8,1.8,26.9,1.4,28.6,0.6
			c7.3-3.4,15.1-28.8,11.6-30.8c-3.4-2-16.9,1.2-34.8-1.2C-484.2,1011.6-507.8,1005.3-513.3,1007.9z"/>
	</g>
	<path class="st3" d="M-441.5,975c0,0-1.4,2.3-2.2,6.2c-2,10.7-12.9,71-12.9,71l-12.2,3.9l12.1-69.6c-5,1.8-8.9,1.9-14,2.6
		c-2.6,0.4-6.4,2.1-7.1,6.2l-1.1,6.1h12.3l-1.5,8.1h-12.2l-11,61.5l-12.1,3.8l11.6-65.3h-6.8l1.4-8.1h6.8l1.2-6.8
		c0.9-5,3.2-8.9,6.9-11.7c3.7-2.8,7.9-4.2,12.4-4.2c2.6,0,12.2,1.5,26.2-2.9C-443.1,975.7-441.5,975-441.5,975z"/>
	<path class="st4" d="M-467.1,1046.2l-1.7,10l12.2-3.9c0,0,0.3-1.9,0.9-5c-3.1-0.2-6.5-0.5-10.3-0.9
		C-466.3,1046.3-466.7,1046.3-467.1,1046.2 M-497.6,1042.2l-2.4,13.7c3.7,0.8,7.6,1.4,11.1,1.7l2.5-13.8
		C-490.3,1043.3-494,1042.7-497.6,1042.2"/>
	<path class="st0" d="M-445.1,988.9c-0.6,3.3-1.3,7.3-2.1,11.6c2.3,0.2,4.3,0.3,6,0.5c0.7-4.3,0.6-8-0.4-9.7
		C-442.2,990.6-443.3,989.7-445.1,988.9 M-456.7,986.6c-5,1.8-8.9,1.9-14,2.6c-2.6,0.4-6.4,2.1-7.1,6.2l-0.2,1.1
		c5.3,1.1,11.1,2.3,16.8,2.9c0.8,0.1,1.5,0.2,2.2,0.2L-456.7,986.6 M-485.1,985.6c-0.3,0.1-0.6,0.2-0.9,0.4
		c-2.3,1.3-4.5,4.2-6.3,7.7c1,0.1,2,0.3,3.1,0.5C-488.5,990.8-487.1,987.9-485.1,985.6"/>
	<path class="st4" d="M-481.8,985.1c-1.3,0-2.4,0.1-3.3,0.4c-2,2.3-3.4,5.2-4.1,8.6c3.3,0.6,7.1,1.5,11.2,2.4l0.2-1.1
		c0.8-4.1,4.5-5.9,7.1-6.2c5.1-0.7,9-0.8,14-2.6l-2.3,13c4.5,0.4,8.4,0.7,11.7,0.9c0.8-4.3,1.5-8.3,2.1-11.6
		c-2.7-1.2-6.8-2.3-12.3-2.3c-0.6,0-1.2,0-1.8,0c-1,0-1.9,0.1-2.8,0.1c-4.3,0-8.1-0.4-11.4-0.8
		C-476.7,985.5-479.5,985.1-481.8,985.1"/>
	<path class="st5" d="M-495.4,1001.6h-1.8l-1.2,6.8c0.4,0.1,0.9,0.1,1.3,0.2C-496.8,1006.5-496.2,1004-495.4,1001.6"/>
	<path class="st6" d="M-447.2,1000.5c-0.9,4.8-1.8,10-2.8,15.3c1.2,0,2.4,0.1,3.5,0.1c2.6-3.9,4.4-9.7,5.3-14.8
		C-442.9,1000.8-444.9,1000.7-447.2,1000.5 M-478,996.5l-0.9,5.1h12.3l-1.5,8.1h-12.2l-0.3,1.8c6.1,1.1,12.6,2.2,19.1,3.2l2.6-15.1
		c-0.7-0.1-1.5-0.1-2.2-0.2C-466.9,998.8-472.7,997.7-478,996.5 M-492.2,993.6c-1.3,2.5-2.4,5.2-3.2,7.9h5l1.2-6.8
		c0-0.2,0.1-0.4,0.1-0.6C-490.2,994-491.3,993.8-492.2,993.6"/>
	<path class="st7" d="M-458.9,999.6l-2.6,15.1c0.3,0,0.6,0.1,0.9,0.1c3.8,0.5,7.3,0.8,10.6,0.9c0.9-5.2,1.9-10.5,2.8-15.3
		C-450.5,1000.3-454.5,1000.1-458.9,999.6 M-489.1,994.2c0,0.2-0.1,0.4-0.1,0.6l-1.2,6.8h-5c-0.8,2.4-1.3,4.9-1.7,7
		c4.9,0.8,10.5,1.9,16.5,3l0.3-1.8h12.2l1.5-8.1h-12.3l0.9-5.1C-482.1,995.7-485.9,994.8-489.1,994.2"/>
	<path class="st8" d="M-441.5,1030.7c-0.3,0.4-0.6,0.6-0.9,0.8c-0.9,0.6-3.6,0.8-7.5,0.8c-1,0-2,0-3.2,0c-1.1,6-2,11.3-2.7,14.9
		c4,0.3,7.3,0.4,10.1,0.4c0.4,0,0.9,0,1.3,0C-442,1040.7-440.4,1033-441.5,1030.7 M-484,1030.2l-2.4,13.6c6.4,0.9,13,1.7,19.4,2.4
		l2.5-14.5c-3.5-0.2-7.1-0.5-10.6-0.7C-478.2,1030.8-481.1,1030.5-484,1030.2 M-509.9,1021.5c-2.7,3.9-4.9,11.2-6.2,17.5
		c4.7,0.9,11.2,2,18.5,3.2l2.4-13.7c-7.6-1.5-13-3.4-14.5-5.1C-509.9,1023.1-509.9,1022.4-509.9,1021.5"/>
	<path class="st9" d="M-464.5,1031.8l-2.5,14.5c0.4,0,0.7,0.1,1.1,0.1c3.8,0.4,7.2,0.7,10.3,0.9c0.7-3.6,1.6-8.9,2.7-14.9
		C-456.4,1032.2-460.4,1032-464.5,1031.8 M-495.2,1028.5l-2.4,13.7c3.6,0.5,7.3,1.1,11.2,1.6l2.4-13.6
		C-488,1029.7-491.8,1029.1-495.2,1028.5"/>
	<path class="st10" d="M-479.4,1017.4c-0.8,0-1.5,0-2.3,0l-1.1,6.3c2.3,0.3,4.8,0.5,7.3,0.5c2.2,0,4.5-0.1,6.8-0.4
		c2-0.3,3.9-0.4,5.7-0.4l0.8-4.4c-2.2-0.4-4.4-0.8-6.6-1.1C-472.3,1017.5-475.9,1017.4-479.4,1017.4 M-435.5,1015.6
		c-0.5,0-1,0-1.5,0.1c-2.5,0.1-5.4,0.2-8.5,0.2c-0.3,0-0.7,0-1,0c-1.2,1.8-2.5,3.2-4,4c-0.1,0-0.2,0.1-0.2,0.1
		c-0.3,1.7-0.6,3.3-0.9,4.9c5.3,1.6,8.7,4,10,5.5c0.1,0.1,0.1,0.2,0.2,0.3C-439.3,1028-436.9,1021.6-435.5,1015.6 M-506.7,1007.4
		c-1.8,5.5-3.1,11.2-3.2,14.1c0.7-1,1.3-1.7,2-2.1c0.5-0.3,1.1-0.4,1.9-0.4c2.6,0,6.7,1.3,11.9,2.6c0,0,0,0,0,0l0.8-4.3
		c-1.9-0.2-3.3-0.6-3.8-1.4c-0.6-1-0.7-3.3-0.4-6.1h-1.4l0.2-1.3C-501.6,1007.9-504.3,1007.6-506.7,1007.4"/>
	<path class="st11" d="M-462.3,1019l-0.8,4.4c0.2,0,0.3,0,0.5,0c4.2,0,7.9,0.6,10.9,1.5c0.3-1.6,0.6-3.3,0.9-4.9
		c-0.6,0.2-1.4,0.3-2.4,0.3C-455.5,1020.3-458.8,1019.6-462.3,1019 M-493.2,1017.3l-0.8,4.3c3.3,0.8,7.1,1.7,11.1,2.2l1.1-6.3
		c-0.7,0-1.3,0-1.9,0c-1.4,0-2.7,0-3.9,0C-489.7,1017.5-491.6,1017.4-493.2,1017.3 M-498.5,1008.4l-0.2,1.3h1.4
		c0-0.4,0.1-0.7,0.2-1.1C-497.6,1008.5-498,1008.5-498.5,1008.4"/>
	<path class="st12" d="M-451.6,1024.8c-0.5,2.6-0.9,5.1-1.4,7.5c1.1,0,2.2,0,3.2,0c3.9,0,6.6-0.2,7.5-0.8c0.3-0.2,0.6-0.5,0.9-0.8
		c-0.1-0.1-0.1-0.2-0.2-0.3C-442.9,1028.8-446.3,1026.4-451.6,1024.8 M-463.1,1023.3c-1.8,0-3.7,0.2-5.7,0.4
		c-2.3,0.3-4.6,0.4-6.8,0.4c-2.5,0-4.9-0.2-7.3-0.5l-1.2,6.5c2.8,0.3,5.8,0.6,8.8,0.8c3.5,0.2,7.1,0.5,10.6,0.7L-463.1,1023.3
		 M-505.9,1018.9c-0.8,0-1.5,0.1-1.9,0.4c-0.7,0.4-1.4,1.2-2,2.1c0,1,0,1.6,0.2,1.9c1.5,1.8,6.8,3.6,14.5,5.1l1.2-6.9c0,0,0,0,0,0
		C-499.2,1020.2-503.3,1018.9-505.9,1018.9"/>
	<path class="st13" d="M-462.6,1023.3c-0.2,0-0.3,0-0.5,0l-1.5,8.4c4.1,0.3,8.1,0.5,11.5,0.6c0.4-2.4,0.9-4.9,1.4-7.5
		C-454.7,1023.9-458.3,1023.3-462.6,1023.3 M-493.9,1021.6l-1.2,6.9c3.3,0.7,7.1,1.3,11.2,1.7l1.2-6.5
		C-486.9,1023.2-490.6,1022.4-493.9,1021.6"/>
	<path class="st12" d="M-450,1015.8c-0.3,1.4-0.5,2.8-0.7,4.1c0.1,0,0.2-0.1,0.2-0.1c1.5-0.7,2.8-2.1,4-4
		C-447.6,1015.8-448.8,1015.8-450,1015.8 M-480.6,1011.6l-1.1,5.9c0.8,0,1.5,0,2.3,0c3.5,0,7.1,0.1,10.5,0.5
		c2.2,0.3,4.4,0.7,6.6,1.1l0.7-4.2C-468.1,1013.8-474.5,1012.7-480.6,1011.6 M-491.9,1009.7h-5.4c-0.4,2.8-0.3,5,0.4,6.1
		c0.5,0.8,1.8,1.2,3.8,1.4L-491.9,1009.7"/>
	<path class="st13" d="M-461.6,1014.7l-0.7,4.2c3.5,0.6,6.8,1.3,9.2,1.3c0.9,0,1.7-0.1,2.4-0.3c0.2-1.4,0.5-2.8,0.7-4.1
		c-3.3-0.1-6.9-0.4-10.6-0.9C-460.9,1014.8-461.3,1014.8-461.6,1014.7 M-497.1,1008.6c-0.1,0.4-0.1,0.8-0.2,1.1h5.4l-1.3,7.5
		c1.6,0.2,3.5,0.2,5.7,0.2c1.2,0,2.6,0,3.9,0c0.6,0,1.3,0,1.9,0l1.1-5.9C-486.6,1010.5-492.3,1009.4-497.1,1008.6"/>
</g>
</svg>
